<svg width="445" height="478" viewBox="0 0 445 478" fill="none" xmlns="http://www.w3.org/2000/svg">
<g filter="url(#filter0_di_43_63)">
<path d="M32.2369 0C24.7483 0.000590661 17.5665 2.36636 12.2712 6.57701C6.97593 10.7876 4.00074 16.4983 4 22.4531V447.547C4.00074 453.502 6.97593 459.212 12.2712 463.423C17.5665 467.634 24.7483 469.999 32.2369 470H124.231C131.72 469.999 138.901 467.634 144.197 463.423C149.492 459.212 152.467 453.502 152.468 447.547V22.4531C152.467 16.4983 149.492 10.7876 144.197 6.57701C138.901 2.36636 131.72 0.000590661 124.231 0H32.2369ZM320.769 0C313.28 0.000590661 306.099 2.36636 300.803 6.57701C295.508 10.7876 292.533 16.4983 292.532 22.4531V447.547C292.533 453.502 295.508 459.212 300.803 463.423C306.099 467.634 313.28 469.999 320.769 470H412.763C420.252 469.999 427.434 467.634 432.729 463.423C438.024 459.212 440.999 453.502 441 447.547V22.4531C440.999 16.4983 438.024 10.7876 432.729 6.57701C427.434 2.36636 420.252 0.000590661 412.763 0H320.769Z" fill="#FF0000"/>
<path d="M412.763 1C420.051 1.00057 427.007 3.30466 432.106 7.35938C437.2 11.4095 439.999 16.8472 440 22.4531V447.547L439.992 448.072C439.822 453.491 437.041 458.717 432.106 462.641C427.007 466.695 420.051 468.999 412.763 469H320.77C313.481 468.999 306.525 466.695 301.426 462.641C296.332 458.59 293.533 453.153 293.532 447.547V22.4531L293.54 21.9277C293.71 16.5085 296.492 11.2829 301.426 7.35938C306.366 3.4314 313.048 1.14633 320.087 1.00684L320.77 1H412.763ZM32.2373 1H124.23L124.913 1.00684C131.952 1.14633 138.634 3.43139 143.574 7.35938C148.668 11.4095 151.467 16.8472 151.468 22.4531V447.547L151.46 448.072C151.29 453.491 148.508 458.717 143.574 462.641C138.475 466.695 131.519 468.999 124.23 469H32.2373L31.5547 468.993C24.5158 468.854 17.8335 466.569 12.8936 462.641C7.80012 458.59 5.00073 453.153 5 447.547V22.4531L5.00781 21.9277C5.1776 16.5085 7.95939 11.2829 12.8936 7.35938C17.8335 3.43138 24.5158 1.14637 31.5547 1.00684L32.2373 1Z" stroke="black" stroke-width="2" stroke-linejoin="round"/>
</g>
<defs>
<filter id="filter0_di_43_63" x="0" y="0" width="445" height="478" filterUnits="userSpaceOnUse" color-interpolation-filters="sRGB">
<feFlood flood-opacity="0" result="BackgroundImageFix"/>
<feColorMatrix in="SourceAlpha" type="matrix" values="0 0 0 0 0 0 0 0 0 0 0 0 0 0 0 0 0 0 127 0" result="hardAlpha"/>
<feOffset dy="4"/>
<feGaussianBlur stdDeviation="2"/>
<feComposite in2="hardAlpha" operator="out"/>
<feColorMatrix type="matrix" values="0 0 0 0 0 0 0 0 0 0 0 0 0 0 0 0 0 0 1 0"/>
<feBlend mode="normal" in2="BackgroundImageFix" result="effect1_dropShadow_43_63"/>
<feBlend mode="normal" in="SourceGraphic" in2="effect1_dropShadow_43_63" result="shape"/>
<feColorMatrix in="SourceAlpha" type="matrix" values="0 0 0 0 0 0 0 0 0 0 0 0 0 0 0 0 0 0 127 0" result="hardAlpha"/>
<feOffset dy="4"/>
<feGaussianBlur stdDeviation="13.9"/>
<feComposite in2="hardAlpha" operator="arithmetic" k2="-1" k3="1"/>
<feColorMatrix type="matrix" values="0 0 0 0 0.9123 0 0 0 0 0.9123 0 0 0 0 0.9123 0 0 0 0.72 0"/>
<feBlend mode="normal" in2="shape" result="effect2_innerShadow_43_63"/>
</filter>
</defs>
</svg>
