<svg width="495" height="528" viewBox="0 0 495 528" fill="none" xmlns="http://www.w3.org/2000/svg">
<g filter="url(#filter0_d_43_63)">
<path d="M57.2369 22C49.7483 22.0006 42.5665 24.3664 37.2712 28.577C31.9759 32.7876 29.0007 38.4983 29 44.4531V469.547C29.0007 475.502 31.9759 481.212 37.2712 485.423C42.5665 489.634 49.7483 491.999 57.2369 492H149.231C156.72 491.999 163.901 489.634 169.197 485.423C174.492 481.212 177.467 475.502 177.468 469.547V44.4531C177.467 38.4983 174.492 32.7876 169.197 28.577C163.901 24.3664 156.72 22.0006 149.231 22H57.2369ZM345.769 22C338.28 22.0006 331.099 24.3664 325.803 28.577C320.508 32.7876 317.533 38.4983 317.532 44.4531V469.547C317.533 475.502 320.508 481.212 325.803 485.423C331.099 489.634 338.28 491.999 345.769 492H437.763C445.252 491.999 452.434 489.634 457.729 485.423C463.024 481.212 465.999 475.502 466 469.547V44.4531C465.999 38.4983 463.024 32.7876 457.729 28.577C452.434 24.3664 445.252 22.0006 437.763 22H345.769Z" fill="#FF0000"/>
</g>
<defs>
<filter id="filter0_d_43_63" x="0.4" y="0.4" width="494.2" height="527.2" filterUnits="userSpaceOnUse" color-interpolation-filters="sRGB">
<feFlood flood-opacity="0" result="BackgroundImageFix"/>
<feColorMatrix in="SourceAlpha" type="matrix" values="0 0 0 0 0 0 0 0 0 0 0 0 0 0 0 0 0 0 127 0" result="hardAlpha"/>
<feOffset dy="7"/>
<feGaussianBlur stdDeviation="14.3"/>
<feComposite in2="hardAlpha" operator="out"/>
<feColorMatrix type="matrix" values="0 0 0 0 0 0 0 0 0 0 0 0 0 0 0 0 0 0 1 0"/>
<feBlend mode="normal" in2="BackgroundImageFix" result="effect1_dropShadow_43_63"/>
<feBlend mode="normal" in="SourceGraphic" in2="effect1_dropShadow_43_63" result="shape"/>
</filter>
</defs>
</svg>
