<svg width="554" height="478" viewBox="0 0 554 478" fill="none" xmlns="http://www.w3.org/2000/svg">
<g filter="url(#filter0_di_43_61)">
<path d="M44.3318 0.000666984C38.5866 0.033893 32.9141 1.29232 27.6896 3.69262C22.4651 6.09292 17.8079 9.58034 14.0264 13.924C10.2448 18.2677 7.42512 23.3685 5.75399 28.8888C4.08285 34.409 3.5984 40.2229 4.33269 45.9453C29.2931 240.214 29.2931 229.786 4.33269 424.055C3.42328 431.143 4.38657 438.347 7.12585 444.943C9.86513 451.539 14.284 457.295 19.9389 461.634C25.5937 465.972 32.2856 468.741 39.3426 469.661C46.3997 470.581 53.5736 469.621 60.1442 466.876L525.032 272.607C532.426 269.514 538.742 264.293 543.186 257.6C547.629 250.908 550 243.044 550 235C550 226.957 547.629 219.093 543.186 212.401C538.742 205.708 532.426 200.486 525.032 197.394L60.1442 3.12464C55.1345 1.03178 49.7576 -0.0305126 44.3318 0.000666984Z" fill="#FF0000"/>
<path d="M44.3379 1.00098C49.2986 0.972517 54.2175 1.88114 58.8389 3.67676L59.7588 4.04688L524.646 198.316C531.857 201.333 538.018 206.426 542.353 212.954C546.687 219.482 549 227.153 549 235C549 242.847 546.687 250.519 542.353 257.047C538.154 263.371 532.241 268.348 525.319 271.396L524.646 271.685L59.7588 465.953C53.3506 468.63 46.354 469.566 39.4717 468.669C32.5896 467.772 26.0632 465.072 20.5479 460.841C15.0324 456.609 10.722 450.994 8.0498 444.56C5.46106 438.326 4.4981 431.536 5.24707 424.831L5.32422 424.183C17.8004 327.08 24.0527 281.041 24.0527 235C24.0527 194.715 19.2657 154.43 9.71094 79.9375L5.32422 45.8174C4.608 40.2351 5.0808 34.5637 6.71094 29.1787C8.34114 23.7937 11.0918 18.8179 14.7803 14.5811C18.4689 10.3441 23.012 6.94256 28.1074 4.60156C32.8843 2.40691 38.045 1.19059 43.2881 1.02051L44.3379 1.00098Z" stroke="black" stroke-width="2"/>
</g>
<defs>
<filter id="filter0_di_43_61" x="0" y="0" width="554" height="478" filterUnits="userSpaceOnUse" color-interpolation-filters="sRGB">
<feFlood flood-opacity="0" result="BackgroundImageFix"/>
<feColorMatrix in="SourceAlpha" type="matrix" values="0 0 0 0 0 0 0 0 0 0 0 0 0 0 0 0 0 0 127 0" result="hardAlpha"/>
<feOffset dy="4"/>
<feGaussianBlur stdDeviation="2"/>
<feComposite in2="hardAlpha" operator="out"/>
<feColorMatrix type="matrix" values="0 0 0 0 0 0 0 0 0 0 0 0 0 0 0 0 0 0 1 0"/>
<feBlend mode="normal" in2="BackgroundImageFix" result="effect1_dropShadow_43_61"/>
<feBlend mode="normal" in="SourceGraphic" in2="effect1_dropShadow_43_61" result="shape"/>
<feColorMatrix in="SourceAlpha" type="matrix" values="0 0 0 0 0 0 0 0 0 0 0 0 0 0 0 0 0 0 127 0" result="hardAlpha"/>
<feOffset dy="4"/>
<feGaussianBlur stdDeviation="12.6"/>
<feComposite in2="hardAlpha" operator="arithmetic" k2="-1" k3="1"/>
<feColorMatrix type="matrix" values="0 0 0 0 1 0 0 0 0 1 0 0 0 0 1 0 0 0 0.72 0"/>
<feBlend mode="normal" in2="shape" result="effect2_innerShadow_43_61"/>
</filter>
</defs>
</svg>
