<svg width="624" height="548" viewBox="0 0 624 548" fill="none" xmlns="http://www.w3.org/2000/svg">
<g filter="url(#filter0_d_43_61)">
<path d="M79.3318 35.0007C73.5866 35.0339 67.9141 36.2923 62.6896 38.6926C57.4651 41.0929 52.8079 44.5803 49.0264 48.924C45.2448 53.2677 42.4251 58.3685 40.754 63.8888C39.0829 69.409 38.5984 75.2229 39.3327 80.9453C64.2931 275.214 64.2931 264.786 39.3327 459.055C38.4233 466.143 39.3866 473.347 42.1259 479.943C44.8651 486.539 49.284 492.295 54.9389 496.634C60.5937 500.972 67.2856 503.741 74.3426 504.661C81.3997 505.581 88.5736 504.621 95.1442 501.876L560.032 307.607C567.426 304.514 573.742 299.293 578.186 292.6C582.629 285.908 585 278.044 585 270C585 261.957 582.629 254.093 578.186 247.401C573.742 240.708 567.426 235.486 560.032 232.394L95.1442 38.1246C90.1345 36.0318 84.7576 34.9695 79.3318 35.0007Z" fill="#FF0000"/>
</g>
<defs>
<filter id="filter0_d_43_61" x="0.200001" y="0.200001" width="623.6" height="547.6" filterUnits="userSpaceOnUse" color-interpolation-filters="sRGB">
<feFlood flood-opacity="0" result="BackgroundImageFix"/>
<feColorMatrix in="SourceAlpha" type="matrix" values="0 0 0 0 0 0 0 0 0 0 0 0 0 0 0 0 0 0 127 0" result="hardAlpha"/>
<feOffset dy="4"/>
<feGaussianBlur stdDeviation="19.4"/>
<feComposite in2="hardAlpha" operator="out"/>
<feColorMatrix type="matrix" values="0 0 0 0 0 0 0 0 0 0 0 0 0 0 0 0 0 0 1 0"/>
<feBlend mode="normal" in2="BackgroundImageFix" result="effect1_dropShadow_43_61"/>
<feBlend mode="normal" in="SourceGraphic" in2="effect1_dropShadow_43_61" result="shape"/>
</filter>
</defs>
</svg>
