<svg width="444" height="460" viewBox="0 0 444 460" fill="none" xmlns="http://www.w3.org/2000/svg">
<g filter="url(#filter0_d_36_38)">
<path d="M323.324 220.442V388.531C323.324 397.294 319.567 404.673 313.791 410.004C307.685 415.64 299.466 418.804 290.9 418.817V418.762C283.049 418.758 275.085 416.125 268.664 410.319L187.916 348.767L91.3576 440.272C83.2998 447.879 70.1888 447.913 62.0815 440.353C53.9742 432.793 53.9385 420.491 61.9963 412.886L297.16 190.021L323.324 165.137V165.23L398.619 93.8709C406.677 86.2645 419.788 86.231 427.895 93.7909C436.003 101.351 436.038 113.652 427.981 121.258L323.324 220.442ZM209.229 328.569L287.995 388.611C288.519 388.994 289.026 389.414 289.506 389.873C289.954 390.298 290.461 390.5 290.9 390.5V390.445C291.241 390.445 291.582 390.382 291.878 390.269C292.204 390.146 292.475 389.991 292.645 389.835C292.909 389.591 293.084 389.15 293.084 388.531V249.099L209.229 328.569ZM67.6823 345.06C53.3423 342.68 40.4593 336.155 30.5406 326.853C17.8692 314.977 10 298.616 10 280.639V160.871C10 142.891 17.8692 126.534 30.5406 114.658C43.1819 102.806 60.6291 95.4526 79.7796 95.4526H183.4L268.009 15.0997C274.583 8.82329 282.815 6 290.9 6C295.128 6 299.33 6.79131 303.222 8.28028C307.163 9.79229 310.753 12.0099 313.791 14.8093C319.557 20.1397 323.324 27.5063 323.324 36.2821V103.076C318.607 106.736 314.594 110.215 312.128 112.567L293.084 130.678V36.2821C293.084 35.6635 292.909 35.2218 292.645 34.9778C292.478 34.8223 292.209 34.6745 291.878 34.5482C291.567 34.4315 291.235 34.3717 290.9 34.3721C290.416 34.3721 289.914 34.5525 289.506 34.94L201.171 118.831C198.395 121.886 194.265 123.825 189.656 123.825H79.7796C68.8838 123.825 58.9743 127.993 51.8047 134.717C44.67 141.401 40.2395 150.661 40.2395 160.871V280.639C40.2395 290.854 44.67 300.109 51.8047 306.794C58.9743 313.517 68.8838 317.686 79.7796 317.686H96.4648L67.6823 345.06Z" fill="#FF0000"/>
</g>
<defs>
<filter id="filter0_d_36_38" x="0" y="0" width="444" height="460" filterUnits="userSpaceOnUse" color-interpolation-filters="sRGB">
<feFlood flood-opacity="0" result="BackgroundImageFix"/>
<feColorMatrix in="SourceAlpha" type="matrix" values="0 0 0 0 0 0 0 0 0 0 0 0 0 0 0 0 0 0 127 0" result="hardAlpha"/>
<feOffset dy="4"/>
<feGaussianBlur stdDeviation="5"/>
<feComposite in2="hardAlpha" operator="out"/>
<feColorMatrix type="matrix" values="0 0 0 0 0 0 0 0 0 0 0 0 0 0 0 0 0 0 1 0"/>
<feBlend mode="normal" in2="BackgroundImageFix" result="effect1_dropShadow_36_38"/>
<feBlend mode="normal" in="SourceGraphic" in2="effect1_dropShadow_36_38" result="shape"/>
</filter>
</defs>
</svg>
