<svg width="631" height="442" viewBox="0 0 631 442" fill="none" xmlns="http://www.w3.org/2000/svg">
<g filter="url(#filter0_d_36_34)">
<path d="M66.2896 104.736H178.527L271.362 11.1894C278.242 4.3077 289.375 4.2516 296.251 11.1333C299.751 14.5229 301.47 19.0403 301.47 23.6114H301.525V410.312C301.525 420.042 293.623 428 283.834 428C278.889 428 274.428 425.958 271.2 422.675L179.442 348.113H66.2896C50.8069 348.113 36.7181 341.772 26.5543 331.608C16.3403 321.443 10 307.357 10 291.873V161.028C10 145.543 16.3403 131.458 26.5042 121.297C37.0833 110.712 51.3105 104.736 66.2896 104.736ZM381.494 163.231C378.607 154.6 383.263 145.252 391.893 142.366C400.523 139.479 409.87 144.134 412.755 152.766C418.436 169.632 421.173 195.812 420.716 220.71C420.273 245.108 416.708 269.08 409.81 283.24C405.819 291.443 395.924 294.855 387.723 290.865C379.521 286.876 376.11 276.978 380.099 268.776C384.893 258.934 387.409 240.143 387.773 220.192C388.171 198.663 386.014 176.647 381.494 163.231ZM466.732 101.564C463.237 93.1437 467.226 83.4835 475.644 79.9865C484.062 76.4908 493.722 80.4806 497.218 88.8996C512.576 125.675 520.865 172.001 521.557 218.045C522.246 263.4 515.55 308.822 500.986 344.908C497.601 353.36 487.992 357.465 479.542 354.079C471.091 350.694 466.986 341.084 470.371 332.633C483.304 300.586 489.242 259.67 488.615 218.433C487.982 176.546 480.534 134.607 466.732 101.564ZM549.112 49.1739C545.155 40.9721 548.599 31.1078 556.8 27.1502C565.002 23.1925 574.865 26.6369 578.822 34.8387C605.748 90.7102 620.469 156.317 620.986 221.462C621.475 284.058 608.87 346.409 581.394 399.552C577.224 407.647 567.273 410.829 559.178 406.659C551.084 402.488 547.902 392.536 552.072 384.441C577.039 336.147 588.492 279.158 588.043 221.721C587.568 161.416 573.969 100.759 549.112 49.1739Z" fill="#FF0000"/>
</g>
<defs>
<filter id="filter0_d_36_34" x="0" y="0" width="630.999" height="442" filterUnits="userSpaceOnUse" color-interpolation-filters="sRGB">
<feFlood flood-opacity="0" result="BackgroundImageFix"/>
<feColorMatrix in="SourceAlpha" type="matrix" values="0 0 0 0 0 0 0 0 0 0 0 0 0 0 0 0 0 0 127 0" result="hardAlpha"/>
<feOffset dy="4"/>
<feGaussianBlur stdDeviation="5"/>
<feComposite in2="hardAlpha" operator="out"/>
<feColorMatrix type="matrix" values="0 0 0 0 0 0 0 0 0 0 0 0 0 0 0 0 0 0 1 0"/>
<feBlend mode="normal" in2="BackgroundImageFix" result="effect1_dropShadow_36_34"/>
<feBlend mode="normal" in="SourceGraphic" in2="effect1_dropShadow_36_34" result="shape"/>
</filter>
</defs>
</svg>
