<svg width="532" height="443" viewBox="0 0 532 443" fill="none" xmlns="http://www.w3.org/2000/svg">
<g filter="url(#filter0_d_36_33)">
<path d="M66.333 104.8H178.657L271.563 11.1921C278.448 4.30608 289.59 4.25108 296.471 11.1371C299.974 14.5291 301.693 19.0481 301.693 23.6231H301.749V410.574C301.749 420.311 293.842 428.273 284.045 428.273C279.095 428.273 274.631 426.231 271.401 422.945L179.572 348.335H66.333C50.838 348.335 36.739 341.99 26.567 331.819C16.345 321.648 10 307.553 10 292.058V161.129C10 145.634 16.345 131.539 26.517 121.372C37.104 110.78 51.342 104.8 66.333 104.8ZM381.779 163.333C378.891 154.696 383.549 145.342 392.186 142.454C400.824 139.566 410.177 144.224 413.065 152.861C418.749 169.738 421.49 195.936 421.032 220.849C420.589 245.263 417.021 269.252 410.117 283.421C406.124 291.628 396.221 295.043 388.013 291.05C379.806 287.058 376.391 277.154 380.384 268.947C385.181 259.099 387.699 240.295 388.064 220.331C388.462 198.787 386.304 176.757 381.779 163.333ZM467.083 101.625C463.585 93.2011 467.578 83.5331 476.002 80.0351C484.427 76.5361 494.094 80.5301 497.592 88.9541C512.963 125.753 521.258 172.109 521.951 218.182C522.64 263.568 515.939 309.017 501.364 345.128C497.976 353.585 488.359 357.693 479.902 354.306C471.446 350.919 467.337 341.302 470.724 332.845C483.669 300.778 489.612 259.834 488.983 218.57C488.35 176.656 480.896 134.69 467.083 101.625Z" fill="#FF0004"/>
</g>
<defs>
<filter id="filter0_d_36_33" x="0" y="0" width="531.999" height="442.273" filterUnits="userSpaceOnUse" color-interpolation-filters="sRGB">
<feFlood flood-opacity="0" result="BackgroundImageFix"/>
<feColorMatrix in="SourceAlpha" type="matrix" values="0 0 0 0 0 0 0 0 0 0 0 0 0 0 0 0 0 0 127 0" result="hardAlpha"/>
<feOffset dy="4"/>
<feGaussianBlur stdDeviation="5"/>
<feComposite in2="hardAlpha" operator="out"/>
<feColorMatrix type="matrix" values="0 0 0 0 0 0 0 0 0 0 0 0 0 0 0 0 0 0 1 0"/>
<feBlend mode="normal" in2="BackgroundImageFix" result="effect1_dropShadow_36_33"/>
<feBlend mode="normal" in="SourceGraphic" in2="effect1_dropShadow_36_33" result="shape"/>
</filter>
</defs>
</svg>
